inDegrees=no
num_controls=7
num_derivatives=13
num_iterations=95
num_multipliers=7
num_parameters=0
num_slacks=7
num_states=26
objective=0.474811
objective_accelerations=0.039394
objective_balance=0.001074
objective_effort=0.018468
objective_height=0.405402
objective_ligament=0.010473
solver_duration=1505.315056
status=Solve_Succeeded
success=true
DataType=double
version=3
OpenSimVersion=4.5
endheader
time	/jointset/ground_pelvis/pelvis_tilt/value	/jointset/ground_pelvis/pelvis_tx/value	/jointset/ground_pelvis/pelvis_ty/value	/jointset/hip_l/hip_flexion_l/value	/jointset/hip_l/hip_adduction_l/value	/jointset/hip_l/hip_rotation_l/value	/jointset/back/lumbar_extension/value	/jointset/patellofemoral_l/patellar_flexion_l/value	/jointset/knee_l/knee_flexion_l/value	/jointset/knee_l/knee_adduction_l/value	/jointset/knee_l/knee_rotation_l/value	/jointset/ankle_l/ankle_angle_l/value	/jointset/subtalar_l/subtalar_angle_l/value	/jointset/ground_pelvis/pelvis_tilt/speed	/jointset/ground_pelvis/pelvis_tx/speed	/jointset/ground_pelvis/pelvis_ty/speed	/jointset/hip_l/hip_flexion_l/speed	/jointset/hip_l/hip_adduction_l/speed	/jointset/hip_l/hip_rotation_l/speed	/jointset/back/lumbar_extension/speed	/jointset/patellofemoral_l/patellar_flexion_l/speed	/jointset/knee_l/knee_flexion_l/speed	/jointset/knee_l/knee_adduction_l/speed	/jointset/knee_l/knee_rotation_l/speed	/jointset/ankle_l/ankle_angle_l/speed	/jointset/subtalar_l/subtalar_angle_l/speed	/forceset/tau_hip_flexion_l	/forceset/tau_hip_adduction_l	/forceset/tau_hip_rotation_l	/forceset/tau_knee_flexion_l	/forceset/tau_ankle_angle_l	/forceset/tau_subtalar_angle_l	/forceset/tau_lumbar_extension	lambda_cid13_p0	lambda_cid13_p1	lambda_cid13_p2	lambda_cid13_p3	lambda_cid13_p4	lambda_cid13_p5	lambda_cid14_p0	/jointset/ground_pelvis/pelvis_tilt/accel	/jointset/ground_pelvis/pelvis_tx/accel	/jointset/ground_pelvis/pelvis_ty/accel	/jointset/hip_l/hip_flexion_l/accel	/jointset/hip_l/hip_adduction_l/accel	/jointset/hip_l/hip_rotation_l/accel	/jointset/back/lumbar_extension/accel	/jointset/patellofemoral_l/patellar_flexion_l/accel	/jointset/knee_l/knee_flexion_l/accel	/jointset/knee_l/knee_adduction_l/accel	/jointset/knee_l/knee_rotation_l/accel	/jointset/ankle_l/ankle_angle_l/accel	/jointset/subtalar_l/subtalar_angle_l/accel	gamma_cid13_p0	gamma_cid13_p1	gamma_cid13_p2	gamma_cid13_p3	gamma_cid13_p4	gamma_cid13_p5	gamma_cid14_p0
1.5	-0.5201227557464699	0.004867900478968745	0.8250912361111737	1.00252130151479	-0.3476279989720525	-0.1708029483628965	-0.3340005728425824	0.4080296726186233	0.4080296726185745	-0.0848762573838889	-0.1744676406026299	0.00849934278999414	0.07770712808979299	0.9937761511939697	0.3962685320616214	0.299696665536413	-2.247573581468311	0.0008168438173896909	-0.3806129178790253	0.60453119657988	-1.08266207540403	-1.082662075404045	-0.1958477203678368	-0.0002930414049472323	0.08645059102144918	0.03072971535888332	-0.193268346275877	0.01454748549256183	0.01206987881126039	-0.02436132653305425	-0.006745180961507715	0.009956766333249519	0.1602562891109009	-26.34878386204191	-4.610827579269949	6.051157555571632	-5.73944078198305	-441.3543568508156	-67.06205933945279	-24.30492046133978	0.4411271073381381	0.6844250175362173	-0.3058765217980229	-1.547335570606325	0.08294884896080787	-0.363905854975664	1.681489100599868	-0.5409482308076093	-0.5409482308076182	-0.3039761280560805	0.03824278266367403	0.495711004346095	0.2367089625989443	4.377031264334667e-08	8.864632945734674e-07	-3.280607997079269e-07	1.299322872295976e-07	2.888696916725091e-07	6.286782401965057e-08	1.853109202019786e-07
1.51	-0.5101636404581413	0.008864369910647126	0.828072296631862	0.9799698516652712	-0.3476166951994652	-0.1746286844989169	-0.3278730134186429	0.397176940565354	0.3971769405653732	-0.08685148830190617	-0.1744707828073023	0.009388097786489873	0.0780250929873838	0.997896526626428	0.4029718078024072	0.2964454432722972	-2.262395717134341	0.001449321433576819	-0.3844949064616409	0.6208873327990696	-1.087730788423165	-1.087730788423173	-0.1991771659496052	-0.0003314269908609405	0.09129304269315351	0.03286704302776186	-0.1868086213063568	0.01328836518178403	0.01220006508099913	-0.0247022382851523	-0.007192341531613041	0.008489703324534104	0.1555255867568141	-26.4385819868135	-4.055349799101513	6.073842634782629	-5.399961853548284	-438.5872715840292	-66.7100957856691	-24.49984330026009	0.3749499487501102	0.655274965478069	-0.3451797882881789	-1.401532227977065	0.05406989767288575	-0.394296462808761	1.598672571185367	-0.4668404842994984	-0.4668404842983812	-0.3440745489241873	-0.02438682353812413	0.477435940221624	0.2026939024478143	4.357455240217541e-08	9.557484529740413e-07	-3.273207430220126e-07	1.368530118257181e-07	3.113618693214145e-07	7.72995121286773e-08	1.939194876024876e-07
1.52	-0.5001678299779821	0.01292627132235891	0.8310187579879952	0.9572798045264148	-0.3475989321147712	-0.1784920307413412	-0.3215846932947908	0.3862781198525231	0.3862781198526183	-0.08885934283088345	-0.1744742103866999	0.01032506203803096	0.07836452100834648	1.001115189560912	0.4093549280683027	0.2927768326253981	-2.275293039335398	0.002108706238769965	-0.3881349391604268	0.6366833365625414	-1.091879807315623	-1.091879807315623	-0.2023724425588512	-0.0003501163495438773	0.09609244203041978	0.03502234003326119	-0.1803488963368274	0.01202924487101889	0.01233025135074141	-0.02504315003724672	-0.007639502101713692	0.007022640315832883	0.1507948844027298	-26.52854596305154	-3.499985807314194	6.096709309536651	-5.080145365879678	-435.8340188218721	-66.39396043507939	-24.68559952851293	0.2607846077432101	0.6203939225582288	-0.3893541983546877	-1.162372877611587	0.08833028676201135	-0.3155146782097189	1.569462609456302	-0.3570094054721968	-0.3570094054721988	-0.2771423335515877	0.04218202810984235	0.4871005374585863	0.2403028299231325	4.324862142619078e-08	1.020291758859235e-06	-3.275673322592762e-07	1.429364883716739e-07	3.340249578588661e-07	9.296766248650087e-08	2.017058328752722e-07
1.53	-0.4901442670532056	0.01705031479605033	0.8339264929853798	0.9344703671137349	-0.3475744465858132	-0.1823907952770672	-0.3151414704554563	0.3753423538185445	0.3753423538186286	-0.09089846291520658	-0.1744779261184636	0.01130968441843595	0.07872555266911466	1.003445242193749	0.4153902958429196	0.2887031433081253	-2.286256145832077	0.002792996833188499	-0.3915743713381537	0.6518512364989808	-1.095111110522501	-1.095111110522512	-0.2054271661970651	-0.0003898202559398477	0.1008183189239752	0.03718514099911618	-0.1738995807013197	0.0106997035755236	0.01242600073020139	-0.02537908955200962	-0.008214455788807948	0.005479030181508463	0.1460243595431391	-26.67351592173188	-2.905959937402384	6.118224921849272	-4.663543094019933	-433.1980271211925	-66.0278788348387	-24.86233838466792	0.1963057224268926	0.585617763294709	-0.4263560099771666	-1.012515605568142	0.05900803875929966	-0.3514733439107031	1.473954464873285	-0.2818898984760327	-0.2818898984775692	-0.3157964999327982	-0.02667340946204904	0.4633055923529324	0.2043048782145641	4.278438404446692e-08	1.079796846446836e-06	-3.288622327899163e-07	1.481303888643297e-07	3.568696392153979e-07	1.099495539836711e-07	2.086185671373496e-07
